<svg width="100" height="105" viewBox="0 0 100 105" fill="none" xmlns="http://www.w3.org/2000/svg">
<g clip-path="url(#clip0_2_12)">
<path d="M0 59.7826C0 84.3956 19.9522 104.348 44.5652 104.348C69.1783 104.348 89.1304 84.3956 89.1304 59.7826C88.8577 51.3923 86.5749 43.1901 82.4739 35.8652L82.6087 36.1304C80.3996 33.2507 79.2057 29.7208 79.213 26.0913V26.087C79.213 18.4783 87.2391 10.8696 95.6478 10.8696H96.7217C98.1256 10.8145 99.4537 10.2184 100.428 9.20615C101.402 8.19385 101.947 6.84387 101.948 5.43896C101.949 4.03405 101.406 2.6832 100.434 1.66934C99.4613 0.655488 98.1342 0.0572744 96.7304 0L95.6348 0C82.2652 0 70.8261 7.13044 68.113 21.7391C61.1186 17.1227 52.8414 14.8411 44.4696 15.2217L44.5522 15.2174C19.9478 15.2304 0.00869565 35.1739 0.00434783 59.7783L0 59.7826ZM39.1304 59.7826C39.1313 58.7079 39.4508 57.6576 40.0485 56.7644C40.6462 55.8712 41.4953 55.1753 42.4884 54.7646C43.4816 54.3539 44.5742 54.2469 45.6282 54.4571C46.6821 54.6673 47.6501 55.1853 48.4097 55.9455C49.1694 56.7058 49.6865 57.6742 49.8959 58.7283C50.1052 59.7824 49.9974 60.8749 49.5859 61.8678C49.1744 62.8606 48.4778 63.7091 47.5842 64.3061C46.6905 64.9031 45.6399 65.2217 44.5652 65.2217H44.5522C43.1138 65.2171 41.7359 64.6425 40.7204 63.6238C39.705 62.6051 39.1348 61.2253 39.1348 59.787V59.7826H39.1304ZM10.8696 59.7826C10.8713 57.1921 11.9018 54.7084 13.7345 52.8775C15.5671 51.0467 18.0519 50.0187 20.6424 50.0196C23.2329 50.0204 25.717 51.0501 27.5484 52.8822C29.3798 54.7142 30.4087 57.1986 30.4087 59.7891C30.4087 62.3796 29.3798 64.864 27.5484 66.6961C25.717 68.5282 23.2329 69.5578 20.6424 69.5587C18.0519 69.5596 15.5671 68.5315 13.7345 66.7007C11.9018 64.8699 10.8713 62.3861 10.8696 59.7957V59.7826ZM58.6957 59.7826C58.6974 57.1921 59.7279 54.7084 61.5605 52.8775C63.3932 51.0467 65.878 50.0187 68.4685 50.0196C71.059 50.0204 73.5431 51.0501 75.3745 52.8822C77.2059 54.7142 78.2348 57.1986 78.2348 59.7891C78.2348 62.3796 77.2059 64.864 75.3745 66.6961C73.5431 68.5282 71.059 69.5578 68.4685 69.5587C65.878 69.5596 63.3932 68.5315 61.5605 66.7007C59.7279 64.8699 58.6974 62.3861 58.6957 59.7957V59.7826ZM34.7826 83.6957C34.7826 81.7608 35.3563 79.8695 36.4313 78.2607C37.5062 76.652 39.034 75.3981 40.8216 74.6577C42.6091 73.9173 44.5761 73.7236 46.4737 74.101C48.3713 74.4785 50.1144 75.4102 51.4826 76.7783C52.8507 78.1464 53.7824 79.8895 54.1599 81.7872C54.5373 83.6848 54.3436 85.6518 53.6032 87.4393C52.8627 89.2268 51.6089 90.7547 50.0001 91.8296C48.3914 92.9045 46.5 93.4783 44.5652 93.4783H44.5478C41.9563 93.4737 39.4726 92.441 37.6417 90.6069C35.8109 88.7728 34.7826 86.2871 34.7826 83.6957V83.6957ZM34.7826 35.8696C34.7832 34.5866 35.0364 33.3163 35.5279 32.1312C36.0194 30.9462 36.7395 29.8695 37.6471 28.9627C38.5547 28.0559 39.632 27.3368 40.8175 26.8463C42.0031 26.3559 43.2736 26.1038 44.5565 26.1043C45.8395 26.1049 47.1098 26.3582 48.2948 26.8497C49.4799 27.3412 50.5566 28.0613 51.4634 28.9689C52.3702 29.8765 53.0893 30.9538 53.5797 32.1393C54.0702 33.3248 54.3223 34.5953 54.3217 35.8783C54.3217 38.4693 53.2924 40.9542 51.4603 42.7864C49.6281 44.6185 47.1432 45.6478 44.5522 45.6478C41.9611 45.6478 39.4762 44.6185 37.644 42.7864C35.8119 40.9542 34.7826 38.4693 34.7826 35.8783V35.8652V35.8696Z" fill="white"/>
</g>
<defs>
<clipPath id="clip0_2_12">
<rect width="100" height="104.348" fill="white"/>
</clipPath>
</defs>
</svg>
