<svg width="100" height="100" viewBox="0 0 100 100" fill="none" xmlns="http://www.w3.org/2000/svg">
<path d="M90.5958 51.3792L53.0958 9.71249C51.5166 7.95415 48.4833 7.95415 46.9041 9.71249L9.40414 51.3792C8.86437 51.9775 8.51008 52.7197 8.38432 53.5157C8.25857 54.3116 8.36679 55.1269 8.69581 55.8625C9.36247 57.3667 10.8541 58.3333 12.5 58.3333H20.8333V87.5C20.8333 88.6051 21.2723 89.6649 22.0537 90.4463C22.8351 91.2277 23.8949 91.6667 25 91.6667H37.5C38.605 91.6667 39.6649 91.2277 40.4463 90.4463C41.2277 89.6649 41.6666 88.6051 41.6666 87.5V70.8333H58.3333V87.5C58.3333 88.6051 58.7723 89.6649 59.5537 90.4463C60.3351 91.2277 61.3949 91.6667 62.5 91.6667H75C76.105 91.6667 77.1649 91.2277 77.9463 90.4463C78.7277 89.6649 79.1666 88.6051 79.1666 87.5V58.3333H87.5C88.3069 58.3368 89.0974 58.1053 89.7751 57.6673C90.4528 57.2292 90.9884 56.6034 91.3166 55.8662C91.6448 55.129 91.7514 54.3122 91.6234 53.5155C91.4954 52.7188 91.1384 51.9765 90.5958 51.3792V51.3792Z" fill="white"/>
</svg>
