<svg width="100" height="100" viewBox="0 0 100 100" fill="none" xmlns="http://www.w3.org/2000/svg">
<g clip-path="url(#clip0_2_6)">
<path d="M98.6328 86.4648L79.1602 66.9922C78.2812 66.1133 77.0898 65.625 75.8398 65.625H72.6562C78.0469 58.7305 81.25 50.0586 81.25 40.625C81.25 18.1836 63.0664 0 40.625 0C18.1836 0 0 18.1836 0 40.625C0 63.0664 18.1836 81.25 40.625 81.25C50.0586 81.25 58.7305 78.0469 65.625 72.6562V75.8398C65.625 77.0898 66.1133 78.2812 66.9922 79.1602L86.4648 98.6328C88.3008 100.469 91.2695 100.469 93.0859 98.6328L98.6133 93.1055C100.449 91.2695 100.449 88.3008 98.6328 86.4648ZM40.625 65.625C26.8164 65.625 15.625 54.4531 15.625 40.625C15.625 26.8164 26.7969 15.625 40.625 15.625C54.4336 15.625 65.625 26.7969 65.625 40.625C65.625 54.4336 54.4531 65.625 40.625 65.625Z" fill="white"/>
</g>
<defs>
<clipPath id="clip0_2_6">
<rect width="100" height="100" fill="white"/>
</clipPath>
</defs>
</svg>
