<svg width="100" height="100" viewBox="0 0 100 100" fill="none" xmlns="http://www.w3.org/2000/svg">
<path d="M88.6816 34.4825L63.8867 30.8789L52.8027 8.40824C52.5 7.79301 52.0019 7.29496 51.3867 6.99222C49.8437 6.2305 47.9687 6.86527 47.1972 8.40824L36.1133 30.8789L11.3183 34.4825C10.6347 34.5801 10.0097 34.9024 9.53122 35.3907C8.95272 35.9853 8.63394 36.7852 8.64493 37.6147C8.65592 38.4442 8.99577 39.2354 9.58981 39.8145L27.5293 57.3047L23.291 82.002C23.1916 82.5765 23.2552 83.1674 23.4745 83.7076C23.6938 84.2478 24.0601 84.7158 24.5319 85.0584C25.0036 85.401 25.562 85.6046 26.1435 85.6461C26.7251 85.6876 27.3066 85.5652 27.8222 85.293L50 73.6329L72.1777 85.293C72.7832 85.6153 73.4863 85.7227 74.1601 85.6055C75.8594 85.3125 77.0019 83.7012 76.709 82.002L72.4707 57.3047L90.4101 39.8145C90.8984 39.336 91.2207 38.711 91.3183 38.0274C91.582 36.3184 90.3906 34.7364 88.6816 34.4825V34.4825Z" fill="white"/>
</svg>
